<svg width="400" height="400" viewBox="0 0 400 400" fill="none" xmlns="http://www.w3.org/2000/svg">
<path d="M195.333 34.9333C194.933 36.6666 194.533 45.7333 194.267 55.0667L194 72.1333L187.067 65.7333C182.4 61.6 179.467 57.4667 178.267 54C176.8 49.3333 176.133 48.6667 172.667 48.6667C168.667 48.6667 168.667 48.8 168.8 55.6C169.067 63.8667 170.267 65.8667 182.133 75.7333C187.2 80 192 84.9333 192.933 86.6667C194.133 88.9333 194.667 97.0667 194.667 111.6V133.2L182.4 124.933C167.733 115.067 165.333 111.467 165.333 98.5333C165.333 85.4667 162.267 76.8 156.4 72.8C152.667 70.2667 150.933 69.7333 149.067 70.8C146.133 72.4 146 76.4 148.933 78.8C152.667 82 154.667 88.9333 154.667 99.0667C154.667 107.067 155.333 110.133 158.4 116.133C161.467 122.133 163.733 124.533 173.067 130.8C192.4 143.733 194.667 148.667 194.667 178.933V198.8L190.533 194C188.133 191.333 184.4 188.267 182.133 187.067C163.467 177.467 157.867 170.133 156 152.667C154.267 135.333 149.333 128.133 134.4 120.667C124.4 115.733 121.2 111.6 120.267 102.667C119.733 97.0667 119.067 95.4667 116.533 94.4C109.467 91.0667 106.8 101.733 112 113.2C113.467 116.4 114.667 119.2 114.667 119.467C114.667 119.733 111.867 120 108.4 120C102.933 120 101.733 119.333 97.2 114.667C91.8667 109.067 88.1333 108 85.4667 111.2C82 115.333 90.5333 125.067 100.4 128.267C102.667 129.067 110.133 129.733 116.667 129.867C125.733 130.133 130 130.933 134 132.933C143.067 137.6 144.267 139.867 145.467 153.867C146.133 162 147.467 168.267 149.2 171.6C152.4 178 161.733 186.933 168.667 190.4C177.333 194.8 186.267 203.467 190.267 211.733C193.867 219.067 194 220.267 194.4 242.533L194.933 265.733L187.333 257.6C182.8 252.667 175.6 247.067 169.2 243.2C163.2 239.733 156.4 234.933 154 232.4C149.067 227.333 145.333 216.133 145.333 206.4C145.333 195.867 139.867 187.867 126.8 178.933C113.2 169.733 110.667 166.533 108.667 155.733C107.2 147.6 107.067 147.333 103.2 147.333C99.6 147.333 99.3333 147.6 98.9333 153.467C98.5333 158.8 99.7333 164.133 103.333 172.267C104.133 174.267 103.6 174.667 99.8667 174.667C94 174.533 85.6 170.667 80.9333 165.733C78.4 162.933 76.8 159.467 75.8667 153.6C74.8 147.467 73.6 144.933 71.6 143.733C69.3333 142.533 68.4 142.8 66.4 145.333C60.5333 152.667 70.8 174.4 83.2 180.933C85.4667 182.133 93.4667 183.467 101.867 184.133C126.533 186.133 133.2 191.6 134.933 211.6C135.867 222.667 137.067 226.267 141.867 233.733L144.267 237.333H132.533C116.933 237.333 111.2 235.6 104.533 228.8C98.6667 223.067 96 216.4 96 207.733C96 200.933 94.8 198.667 91.3333 198.667C86.8 198.667 85.0667 201.6 86.1333 207.867C86.9333 213.067 86.8 213.333 83.7333 213.333C74.5333 213.333 60 201.467 60 194C60 192.533 59.2 190 58.1333 188.667C56.4 186.267 56.1333 186.267 52.8 188.4C48 191.6 48.2667 197.6 53.7333 206.667C58.6667 215.067 64.9333 218.8 79.3333 222.267C87.8667 224.267 88.9333 224.8 92.1333 229.867C94 232.933 98.4 237.333 101.867 239.6L108.267 243.867L101.2 245.867C87.7333 249.867 77.4667 248 68.6667 239.867C62.1333 233.867 60.5333 233.467 58.5333 237.867C57.2 240.667 57.6 241.867 60.6667 245.867C66 252.8 76 257.333 86.2667 257.333C90.9333 257.333 94.6667 257.6 94.6667 258C94.6667 260.8 87.4667 271.867 84.1333 274.4C79.3333 277.867 78.8 281.867 82.6667 284C87.2 286.4 93.3333 281.467 99.3333 270.533C105.067 260.133 109.6 255.6 118.667 251.467C123.6 249.2 127.333 248.667 140 248.667C153.867 248.667 156.133 249.067 162.933 252.267C171.733 256.4 182.8 266.267 187.333 274C195.2 287.333 196.667 312.4 190.533 328.667C187.467 336.8 179.733 345.733 172.267 349.6C168.533 351.6 168 352.533 168.8 354.933C169.733 358.133 171.733 360 174.133 360C177.333 360 190.133 349.6 194.4 343.333C196.8 339.6 199.333 336.533 199.867 336.267C200.4 336.133 201.6 337.467 202.4 339.333C206.933 349.2 224.533 362.133 228.667 358.667C232.133 355.867 230.933 352.133 225.467 348.8C211.6 340 205.333 326 205.333 303.867C205.333 286.4 209.067 276.533 220.267 264.667C230 254.267 237.333 250.933 254.267 249.2C277.6 246.8 289.333 251.733 297.6 267.467C303.733 279.067 309.067 284.4 314 283.733C316.133 283.467 318.4 282.267 319.2 280.933C320.4 278.933 319.867 277.867 315.6 274.4C311.6 271.067 305.333 262.133 305.333 259.6C305.333 259.333 309.2 258.667 314 258.267C323.867 257.333 330.8 254.133 337.067 247.6C341.867 242.667 342.4 238 338.4 235.6C336.667 234.4 335.2 235.2 330.933 239.6C328 242.533 323.333 245.733 320.667 246.667C314.667 248.667 298.133 247.867 293.467 245.467L290.4 243.733L294.8 241.067C301.333 237.2 306.267 232.267 308 227.867C309.067 225.333 310.667 224 312.533 224C314 224 319.867 222.667 325.333 221.067C337.2 217.6 344.933 210.8 347.733 201.733C350.267 192.8 349.867 189.467 345.867 188C341.333 186.267 340.4 186.933 339.333 193.333C337.6 203.867 329.733 211.067 318.133 212.933L313.333 213.733V207.6C313.333 201.867 310.933 197.333 308 197.333C304.933 197.333 302.667 201.867 302.667 207.867C302.667 227.333 290 237.333 265.067 237.333H252.8L256.4 233.6C261.2 228.533 264 219.867 264 209.6C264 200 266.667 194 273.067 189.467C277.333 186.4 289.467 184 300.133 184C309.467 184 313.333 182.667 320.533 176.667C327.867 170.667 333.333 160.667 333.6 152.8C334.133 140.533 325.2 139.333 323.467 151.467C322.267 161.067 317.867 167.467 310.133 171.333C306.533 173.2 301.2 174.667 298.4 174.667H293.467L296.8 168.4C299.467 163.333 300 160.533 299.733 154.667C299.333 147.467 299.2 147.333 295.333 147.333C291.467 147.333 291.333 147.6 290.267 155.467C288.8 165.733 284.4 171.333 272 178.667C257.467 187.067 253.333 193.867 253.333 209.2C253.333 223.6 247.733 233.067 234.4 241.333C216.8 252.267 213.067 255.067 209.2 260.4L205.067 266L205.6 242C206 219.067 206.133 217.733 209.6 211.333C213.867 203.067 221.733 195.733 233.333 188.933C246.933 181.067 253.333 170.133 253.333 154.667C253.467 136.933 261.467 130.533 284.133 130C298.533 129.6 303.733 127.867 310.533 120.8C315.867 115.2 315.867 110.267 310.533 109.6C308.133 109.333 306.133 110.133 304.533 112.267C300.267 117.6 295.733 120 289.733 120C284.4 120 282.4 118.533 285.333 116.667C287.467 115.333 290.933 101.467 290.133 97.8667C289.333 95.0667 288.533 94.5333 284.933 94.9333C280.4 95.3333 280.4 95.3333 277.733 109.2C276.933 113.733 271.2 118.533 260.8 123.867C247.867 130.4 242.8 139.467 242.667 156.4C242.667 167.867 237.2 175.2 221.067 185.2C216.133 188.4 210.533 192.667 208.533 194.933L205.067 199.2L205.6 175.867C206.133 145.733 207.467 142.933 227.733 129.467C240.133 121.2 243.067 116 244 100.133C244.8 87.7333 247.6 78.6667 250.667 78.6667C252.8 78.6667 252.133 72.5333 250 70.6667C248.267 69.2 247.333 69.3333 244.4 71.6C237.2 76.9333 235.6 80.4 234.533 94.2667C233.067 113.733 232.4 114.8 215.067 125.867L205.333 132V110.533C205.333 85.8667 205.867 84.1333 215.6 76.9333C227.733 68 230 64.8 230 56.2667C230 49.0667 229.867 48.6667 226.4 48.2667C223.333 47.8667 222.667 48.5333 220.667 54.5333C219.2 59.2 216.8 62.8 212.933 66C210 68.5333 207.067 70.6667 206.4 70.6667C205.867 70.6667 205.333 63.0667 205.333 53.8667C205.333 44.6667 204.667 36 204 34.5333C202 30.9333 196.267 31.2 195.333 34.9333Z" fill="black"/>
</svg>
